<?xml version="1.0" encoding="UTF-8"?>
<svg id="Layer_1" xmlns="http://www.w3.org/2000/svg" version="1.1" viewBox="0 0 24 24">
  <!-- Generator: Adobe Illustrator 30.1.0, SVG Export Plug-In . SVG Version: 2.1.1 Build 136)  -->
  <defs>
    <style>
      .st0 {
        fill: #fff;
      }
    </style>
  </defs>
  <path class="st0" d="M23.5,6.2c-.3-1-1.1-1.9-2.1-2.1-1.9-.5-9.4-.5-9.4-.5,0,0-7.5,0-9.4.5-1,.3-1.8,1.1-2.1,2.1-.5,1.9-.5,5.8-.5,5.8,0,0,0,3.9.5,5.8.3,1,1.1,1.9,2.1,2.1,1.9.5,9.4.5,9.4.5,0,0,7.5,0,9.4-.5,1-.3,1.8-1.1,2.1-2.1.5-1.9.5-5.8.5-5.8,0,0,0-3.9-.5-5.8ZM9.5,15.6v-7.1l6.3,3.6-6.3,3.6Z"/>
</svg>