<?xml version="1.0" encoding="UTF-8"?>
<svg id="Layer_1" xmlns="http://www.w3.org/2000/svg" version="1.1" viewBox="0 0 1408 431">
  <!-- Generator: Adobe Illustrator 30.2.1, SVG Export Plug-In . SVG Version: 2.1.1 Build 1)  -->
  <defs>
    <style>
      .st0 {
        fill: #fff;
      }
    </style>
  </defs>
  <path class="st0" d="M685,27q1.2,0,2.4,0c10.7.1,20.9.9,31.4,3.2q1.3.3,2.7.6c5.5,1.3,10.4,3.3,15.4,6,1.9,1,3.9,1.9,5.9,2.7,6.1,2.6,10.7,5.6,15.3,10.4q1.2.9,2.4,1.8c3.6,3,6.6,6.6,9.6,10.2q1,1.1,2,2.3c2.4,3.3,3.8,6.6,5.2,10.4.5,1.3,1,2.7,1.5,4q.6,1.6,1.3,3.3c.3.7.7,1.3,1,2,.3,2.3.5,4.6.7,6.9q.2,2.1,1.3,4.1c.3,3.9.2,7.9.2,11.8q0,1.6,0,3.3t0,3.2c0,1,0,1.9,0,2.9-.4,3.2-1.6,5.1-3.4,7.7q-.7,2.5-1.2,5.2c-3,12.6-8.6,24.2-16.8,34.2-2.1,2.7-3.5,5.5-5,8.6h-2c-.2.7-.5,1.4-.8,2.2-1.4,3.1-3,5.3-5.2,7.8h-2c0,.7-.1,1.4-.2,2.2-1.1,3.7-2.9,5.3-5.8,7.8h-2c-.3,1-.7,2-1,3h-2l-1,4c.6-.6,1.2-1.1,1.9-1.7,4.9-3.6,10.3-6.4,16.1-8.3l1-2c1.6-.7,3.3-1.4,4.9-2,3.1-1.5,5.8-3.4,8.6-5.4,2.5-1.7,5.1-3,7.8-4.4,4.2-2.2,7.7-4.8,11.3-7.9,5-4.2,8.6-6.5,15.4-6.1,1.7.2,3.3.5,5,.9v2c1.1-.2,2.1-.5,3.2-.7q3.8-.3,6.2.6c2,2.6,2,4.7,2.1,7.9-.7,3-2.6,4.7-4.5,7.1-1.9,3.9-3.4,8-5,12-.3.7-.6,1.4-.9,2.1-2.6,6.1-2.8,12.4-3.1,18.9,1,.7,2,1.3,3,2q13.7-6.5,24-17c.9-2.8,1.5-5.6,2.1-8.5q1.8-8.7,3.9-12.5c.3-1.2.7-2.4,1-3.6q1-3.4,3-5.4c.5-1.9.9-3.8,1.4-5.7,1.3-4.7,3.2-9.4,6.1-13.3,1.6-2.2,2.5-4.3,3.4-6.8,1.7-4.4,3.6-8.2,6.1-12.2q.7-1.2,1.5-2.4c.9-1.6,1.9-3.1,2.8-4.7,2.4-4,4.8-7.9,7-12,.4-.7.8-1.4,1.2-2.2.8-1.4,1.6-2.9,2.4-4.3.4-.7.7-1.3,1.1-2,.3-.6.6-1.2,1-1.8q1.1-1.7,2.6-3.2c2-2,3.1-4.3,4.5-6.7,5.1-8.7,14.7-16.2,24-19.8q3.2.6,6,2c3.7,5.6,1.5,13,.4,19.3-1.3,5.6-2.5,9.3-6.4,13.7-.7,1.9-1.5,3.9-2.2,5.8-1.3,3.5-3.1,6.8-4.8,10.1-3.8,7.5-7.6,15-10.1,23.1h-2c-.2.7-.5,1.4-.7,2.1-3.6,8-10.3,15.4-16.3,21.9h-2c-.3,1.6-.7,3.3-1,5h-2q-.3,1.1-.7,2.2c-1.6,3.4-3.5,5.4-6.3,7.8h-2q-.4.8-.8,1.6c-1.7,3.3-3.6,6.7-6.2,9.4,0,2.5,0,5,0,7.6q0,1.1,0,2.2c0,1.8,0,3.5,0,5.3q2.9,1.3,5.2,0c8-5,15.4-10.2,21.8-17,.9-.9,1.8-1.8,2.8-2.7q2.3-2.1,3.2-4.3h2v-2c1.6-1.7,3.3-3.4,5-5,.6-.8,1.1-1.5,1.7-2.3.4-.6.9-1.1,1.3-1.7h2c.3-.5.5-1.1.8-1.7q.6-1.2,1.2-2.3c.4-.9.9-1.8,1.3-2.7.5-.9,1-1.9,1.5-2.9.5-1,1-1.9,1.5-2.9,2-2.9,3.6-4.1,6.7-5.6,4.1-.4,5.5-.3,9,2q.4,2.2.5,4.9,0,1.5,0,3c0,1,0,2,0,3.1,0,2,.1,4,.2,6.1q0,1.3,0,2.7,0,2.3,1.2,4.2c0,1.8.1,3.6,0,5.4,0,1.1,0,2.2,0,3.3,0,1.1,0,2.3,0,3.4,0,1.1,0,2.3,0,3.4,0,2.8,0,5.6,0,8.4.9-.8,1.9-1.6,2.9-2.5q2.9-2.5,5.1-2.5v-2h3c.3-.6.5-1.2.8-1.8,1.2-2.3,2.5-4,4.2-5.9,4.1-5.1,7.2-10.6,10.4-16.3,2.5-4.3,4.9-7.7,8.6-11,.3-.3.7-.7,1-1,4.1-.5,7.8-.9,11.2,1.6,1.5,4.4-.4,7.9-2.4,11.9-.9,1.7-1.8,3.4-2.6,5.2-1.5,3.1-2.3,6.1-3.2,9.4-.5,1.5-1.1,3.1-1.6,4.6-1.1,3.2-1.7,5.9-1.4,9.4,3.9-3.6,7-7.5,10.2-11.7,3.2-4.2,6.3-8.1,10.4-11.4,2.5-2,3.7-4.1,5.3-6.9h2c.3-.6.5-1.2.8-1.8,2-3.7,4.5-6.2,8.2-8.2,3.5-.4,6.7-.2,10,1,2.4,2.3,3,3.5,3.3,6.8q0,1.5-.1,3c0,1,0,2,0,3q0,1.1-.1,2.3c.9-.8,1.9-1.6,2.9-2.5q2.9-2.5,5.1-2.5c.3-1,.7-2,1-3,6.5-4.7,12-6.9,20-6q2,1,3.1,3c1.2,4,1.6,7.9,1.9,12,.5-.5,1.1-1,1.7-1.5,2.4-2.2,4.9-4.3,7.3-6.5.8-.7,1.5-1.4,2.3-2.1,4.8-4.1,8.2-6.4,14.7-5.9q2.8,1.8,4,5c-.7,2.9-1.7,5.5-2.8,8.2-1.5,3.6-2.3,7.1-3.2,10.8-.3,1-.7,2-1,3h-2c0,2.6.2,5.1.3,7.7,0,.7,0,1.4,0,2.2.2,4.5.9,7.4,3.6,11.1,6-.5,10.6-2.4,16-5q-.1-1.9-.2-3.8c.1-9.7,4.7-17.3,9.8-25.2.5-.8.9-1.5,1.4-2.3.5-.7.9-1.4,1.4-2.1.4-.6.8-1.3,1.3-1.9,1.6-1.9,3.2-2.6,5.4-3.6.4-1.3.7-2.7,1-4q1.7-1.7,3.9-3.2c.7-.5,1.4-1,2.1-1.5,4-2.5,7.4-2.6,12-2.3q2.3.9,4,3c2.6,6.4,2.3,12.5,0,19-3.3,7-6.7,12.5-13,17q-1.4,1.4-2.8,2.8-2.2,2.2-4.2,2.2c-.3,3-.7,5.9-1,9,7.5,1.5,11.7,1,18.2-3q7.9-5.5,13.8-13h2q.4-.8.8-1.7c1.3-2.5,2.9-4.7,4.6-7,2.9-4,5-8,6.9-12.6q.7-1.7,1.7-2.7c.1-1.4.2-2.8.3-4.2.5-4.5,1.7-7.3,4.7-10.8,2.9-1,4.7-1.1,7.7-1.1.8,0,1.6,0,2.4,0q.9,0,1.9,0,.2,1,.5,2c1.8,6.9,4,10.2,9.6,14.6q5.7,4.6,6.7,8.3c-1.1,4.3-3.3,7.4-5.8,11.1-.6,1-1.1,2-1.7,3q-.6,1-1.3,2h-2q-1.7,9.7,1.1,18.9c3.1,3.3,5.8,3.7,10.2,3.9,11.7-.7,22.8-3.5,33.3-8.7,2.3-1,4.2-1.5,6.6-1.8,5.4-1,9.7-4,14.2-6.9,3.4-2.1,6.3-3.8,10.2-4.8,5.4-1.4,9.3-5.2,13.5-8.7q2.8-1.8,5.7-1.5,1.1.4,2.1.8c.3,1.3.7,2.6,1,4-.6.2-1.2.5-1.9.8q-2.3,1-2.9,3.1c-1.6,2.9-3.5,3.9-6.2,5.6-1,.6-2,1.2-3,1.8-5,3-10.1,5.8-15.3,8.4q-2.6,1.2-4.2,3.1-1.4,1.3-4.1,1.5c-.8,0-1.5-.1-2.3-.2v2c-.8.2-1.5.5-2.3.7-6,1.9-11.7,4.1-17.3,7.1-5.7,2.9-11.1,4.8-17.3,5.9q-4.4.4-8.1,2.4c-8,.7-15.5-1-23-4-4.6-3.9-7.2-8.5-9-14.2,0-8.9,4.1-16.6,9-23.8,1.4-2.3,2.7-4.7,4-7-2.8-3.2-4.7-4.7-9-5-1,.3-2,.7-3,1-.1.9-.2,1.8-.3,2.8-.7,3.3-1.6,4.7-3.7,7.2-.3,1-.7,2-1,3q-1.5,1-3,2-1.1,1.7-2.1,3.6-1.9,3.4-3.9,4.4-.6,1.1-1.3,2.2c-4.4,7.3-9.2,10.8-16.7,14.8-.9.5-1.7,1-2.6,1.5-7.9,4.1-16.6,6-25.4,3.8q-6.2-2.3-8.5-5c-.5-.4-1-.9-1.5-1.3-3.3.3-6,1.9-8.9,3.4-8.5,4.2-13.8,5.1-23.1,2.6-4.9-2.5-6.8-5.1-9-10-1.4-4.8-1.5-10-2-15-3.8,1.5-5.2,3.4-7.2,6.9-.5.9-1,1.8-1.5,2.7q-1.4,2.4-2.3,5.4h-2q-.4,1.1-.8,2.3c-1.4,3.1-2.2,4.2-5.2,5.7-4.4,0-7.3-.6-11-3,.4-5.6,1.3-10.4,3.2-15.7.8-2.3,1.3-4.5,1.8-6.9.9-4.1,2.3-7.6,4-11.4.4-1.3.7-2.7,1-4h-3c-.3,1-.7,2-1,3q-1.5,1-3,2c-.3,1-.7,2-1,3h-2v2c-.8.6-1.5,1.2-2.3,1.8-3,2.5-4.5,4.8-6.4,8.2q-.9,1.5-1.7,3.1c-.5,1-1.1,2-1.6,3q-2.7,4.8-4.9,6.7c-2.2,2.5-2.8,4.2-3.8,7.3-1.4,3.9-2.6,5.7-6.2,7.7-3,1.4-4.9,1.5-8,.3q-2.3-2.1-4-5c0-5.4,1.2-8.7,3.8-13.4,2.7-5.9,4.3-12.3,6.2-18.6h-3c-.3.6-.5,1.2-.8,1.8-1.3,2.4-2.7,4.1-4.5,6.1-2.4,2.6-4.5,5.3-6.5,8.2q-1.1,1.5-2.2,3h-2q-.4,1.1-.7,2.2c-2.4,5.4-7.3,9.5-12.7,11.8-3.5.9-5.9,1.1-9.5.3-2.7-1.7-4.7-2.9-5.7-6.1-.5-2.5-.5-4.9-.5-7.5,0-.9,0-1.8,0-2.7q0-1,0-2c-.8.6-1.5,1.2-2.3,1.8-6.3,4.9-12.4,9-19.7,12.2-.9.4-1.7.7-2.6,1.1q-2.4.9-5.4.9v3c-6.4,3.1-12,5.1-19.1,3.1-5.7-2.2-10.1-4.4-13.9-9.1l-2-2q-.1-3.1,0-6c-.4.4-.9.8-1.3,1.1-7.5,6.1-16.5,11-26.5,10.4-3.9-1-6-3.2-8.2-6.6q-1.4-3.2-2-6l1-2q-1.1,1.1-2.2,2.2-6.9,6.8-9.8,6.8c-.2.6-.4,1.2-.6,1.9-2,3.1-3.9,3.2-7.4,4.1-.7.3-1.4.5-2.1.8-5.2,1.9-9.4,3-14.9,2.2-4.9-3.6-7.3-8.7-10-14q-1,1.1-2.1,2.1c-6.8,6.8-14.6,13.8-23.9,16.9-4.7-.2-7.6-.8-11-4-2.6-6.3-2.4-12.7,0-19q1.9-3.2,4-6c1.8-2.9,3.5-5.9,5-9q-.8.5-1.7,1c-2.5,1.5-5,2.9-7.5,4.4-.9.5-1.7,1-2.6,1.5-.8.5-1.7,1-2.5,1.5-.8.5-1.5.9-2.3,1.4q-2.3,1.2-5,2.2c-.7.3-1.5.7-2.3,1-.3,1-.7,2-1,3q-1.9,1.4-4.3,2.6c-.8.4-1.6.9-2.4,1.3-2.1,1-4,1.6-6.3,2.1-.3-1.6-.7-3.3-1-5-.6.4-1.1.8-1.7,1.1-12,8.1-24.4,16.4-38.3,20.9-.7.2-1.4.5-2.1.7-11.3,3.8-20.9,6.3-32.9,5.3-.8,0-1.7,0-2.5-.1-4.3-.3-6.9-1.6-10.5-3.9q-1.9-.6-3.8-1.2c-6.1-2.2-11.6-6.3-15.2-11.8-2.6,1-4,1.9-5.8,4.2-2.5,3.2-5.3,5.5-8.4,8.1-1.9,1.8-2.7,3.4-3.8,5.7-1.7.7-3.3,1.3-5,2-1.2,1-2.3,2-3.4,3-4.2,3.7-7.7,4.8-13.3,5.3q-1.6-.2-3.2-.3c-3-4.5-2.5-8.8-1.7-14.1,1.8-7.9,6-14.6,10.2-21.4,1.4-2.3,2.6-4.6,3.9-7,5.3-9.6,12.9-19.6,23.6-23.1,3.3-.7,5.8-.4,9,.6q1.9,2.6,3,5c1-.3,2-.7,3-1,.3-1.2.7-2.3,1-3.5.3-1.2.7-2.3,1-3.5,1-.3,2-.7,3-1,.7-2.3,1.4-4.6,2-7,.6-1.4,1.3-2.7,2-4-.4-.3-.8-.7-1.2-1-2.5-2.8-4.1-6.1-5.8-9.4-2.1-4.1-4.1-7.9-7-11.6-3-5-4.7-10.1-6.3-15.6-1.2-4.1-3.1-8-4.9-11.9-3.7-8.3-5.8-16.6-7.8-25.5q-.3-1.4-.7-2.8c-1.6-7-2-14.1-1.3-21.2.7-.7,1.3-1.3,2-2,.3-1.2.5-2.4.8-3.6,1.6-6.7,5.3-13.5,10.2-18.4,2-.7,4-1.4,6-2q.5-1.5,1-3,1.7-1,3.9-1.8c3.5-1.4,6.4-3,9.4-5.2,6.8-4.3,14.8-5.2,22.6-6.5q2.1-.4,4.1-1.5c8.2-4.1,23-2.2,32-2ZM666.8,35.5c-3.1.4-5.8.5-8.9.4-4.4,0-7.8.5-11.9,2.1-.3.7-.7,1.3-1,2-1.5.3-3.1.5-4.6.6-8,1.3-17.6,5.6-23.4,11.4-.7.3-1.3.7-2,1v2c-.6.2-1.2.5-1.9.8-2.6,1.5-3,2.5-4.1,5.2-.3.8-.6,1.6-1,2.4-.3.8-.7,1.7-1,2.6q-.6,1.2-1.1,2.5c-2.7,6.1-3.4,10.9-2.9,17.5,0,.8,0,1.6.1,2.5.5,7.2,2.1,14.2,4.9,20.9,1.2,3.2,2,6.5,2.8,9.8,1.4,5.5,3.2,10.4,6,15.4,1.4,2.7,2.3,5.4,3.3,8.2,1.4,4.1,3,6.9,5.9,10.2,1.8,2.9,3.5,5.9,5,9h3c4.8-5.9,7.5-13.3,10.4-20.3,2.3-5.3,5.1-10.3,7.8-15.4,1.5-2.7,2.8-5.4,4.1-8.1q1.7-3.2,3.1-4.6c2-2.1,3.2-4.4,4.5-6.9,3.4-6.4,6.7-11.8,12.1-16.7.8-.8,1.6-1.6,2.4-2.4q2.6-1.6,5.9-1.4c.9.2,1.8.5,2.7.8v6c-.6.2-1.2.4-1.8.6-6.8,4.1-11.1,14.2-14.2,21.4-.3.7-.6,1.3-.9,2-1.6,3.5-3.1,7-4.6,10.5-.3.6-.5,1.2-.8,1.9-.8,1.8-1.5,3.6-2.3,5.4-1.3,2.9-2.8,5.5-4.5,8.2q-7,12.4-11,26h-2c-2.1,3.4-2.5,6-2,10q2.2,2.5,5.2,4.6,10.2,7.6,11.6,11.8c0,.6.1,1.1.2,1.7-4.6-1.6-8.2-2.9-12-6h-2c-.2-.6-.4-1.2-.6-1.9-2.2-3.2-4.8-3.3-8.4-4.1-4.5,4.8-7.6,9.7-10.6,15.5q-1.4,2.5-3.1,4-1.5,1.5-1.7,3.9c.9,6.3,6.5,11,11.2,15,9.1,6.7,16.7,7.4,27.7,5.9,2.2-.4,4.4-.8,6.6-1.2q1.7-.3,3.4-.7c6.6-1.4,12.6-3.3,18.6-6.3,1.2-.6,2.4-1.2,3.6-1.8q1.2-.6,2.4-1.2v-2q1.2-.4,2.4-.9,2.7-1,4.6-3.1,1.5-.6,3.1-1.2c4-1.6,6.8-4.1,10-7.1,1.6-1.5,3.3-2.8,5-4.2,3-2.6,5.4-5.3,7.9-8.3,2.3-2.7,4.8-5.3,7.2-7.9,3.6-4,6.4-7.6,8.8-12.4.7-1.1,1.5-2.2,2.2-3.3q1.9-2.4,1.8-4.7c1-.3,2-.7,3-1q1.2-1.8,2.2-4.1c.4-.9.9-1.8,1.3-2.8.5-1,1-2.1,1.5-3.1.6-1.1,1.1-2.2,1.7-3.4,4.1-8.2,6.7-16.2,8.5-25.2q.7-3.4,1.7-5.4c1-15.6-.4-31.1-8-45-.4-.7-.7-1.4-1.1-2.2q-2-3.9-5.9-5.8c-.7-1.7-1.3-3.3-2-5-1-.3-2-.7-3-1-.3-1-.7-2-1-3l-1.8-.9q-2.2-1.1-4.4-3.4c-3.6-3.4-7.4-5.5-11.8-7.7-.9-.4-1.7-.9-2.6-1.4-5.7-2.8-11-4.4-17.2-5.3q-2.1-.4-3.1-1.4c-2.5-.2-4.9-.4-7.4-.6-.8,0-1.5,0-2.3-.1-5.6-.3-11.2-.4-16.8-.4-.7,0-1.4,0-2.2,0-3.5,0-7,.2-10.5.7ZM899,87c-2.8,3-5.1,6.1-7.1,9.7-1.5,2.7-2.7,4.2-4.9,6.3q-.7,2.1-1,4h-2c-.8,1.6-1.7,3.2-2.5,4.8-.5.9-.9,1.8-1.4,2.7q-1.4,2.7-1.1,6.6h-2q-5.7,10-8,21h-2q-5.7,10.5-8.7,22-.3,2-1.3,5c9.4-3.1,15.1-14.9,20-23,.7-1.6,1.4-3.3,2-5h2c.3-.7.6-1.3.9-2,2.6-6,5.5-11.7,8.7-17.4,1.7-3.1,3-6.2,4.4-9.4,1-2.3,2.2-4.4,3.5-6.6,4.1-7.3,6.9-14.2,7.5-22.6-2.5,0-5.1,2.5-7,4ZM856,169c-.3,1.3-.7,2.6-1,4l3-3-2-1ZM1103.5,179.4c-2.5,2.6-3.4,5.1-4.5,8.6q.2,2.3,1,4h2q3-3.1,4-7h2c1.6-2.6,2-3.7,1.6-6.8-.2-.7-.4-1.5-.6-2.2-2.2,0-3.9,2.1-5.5,3.4ZM791,179v2c-.6,0-1.1.2-1.7.3-2.9.9-4.5,2.4-6.7,4.5q-1.2,1.1-2.4,2.2c-.7.7-1.4,1.4-2.2,2.1q-1.4,1.3-2.8,2.6c-4.7,5-7.7,10.1-10.2,16.4l-1,1c0,2.3,0,4.7,0,7,9.1-1.6,16.7-11,22-18,2.6-4.2,4.8-8.6,7-13q.8-1.6,1.7-3.3,1.4-2.5,1.3-4.7-2.9-.2-5,1ZM897,185c-3,2.9-5.8,5.9-8.5,9-2.7,3.1-5.5,6.1-8.5,9l-2.8,2.8-2.2,2.2c1.2,0,2.3-.2,3.5-.2,3.5,0,5.6.6,8.6,2.3,2.8,1.5,3.9,1.9,7.2,2.1q3-1,4.5-4.2c2.5-7.3,3-14.7.2-22l-2-1ZM599,201c-1,1.4-1.9,2.8-2.8,4.2-1.2,1.8-2.6,3.3-4.1,4.9-3.3,3.7-5.5,7.8-7.7,12.2-1.2,2.2-2.4,4.3-3.7,6.4-1.9,3.7-2.4,6.2-2.7,10.2q1.5-.5,3-1v-2c.6-.3,1.2-.5,1.8-.8,7.7-4.1,13.1-11.3,18.2-18.2.6-.7,1.2-1.3,1.8-2q1.4-1.9,1.1-4.2c-.2-.8-.4-1.5-.6-2.3-.2-.8-.4-1.5-.6-2.3-.5-1.7-1.1-3.4-1.6-5.1h-2ZM719,210l1,2-1-2Z"/>
  <path class="st0" d="M432,20c-1.4,5.7-4.4,9.5-8,14-.6.8-1.3,1.7-1.9,2.5-3.5,4.5-6.8,8.3-11.2,11.8-3.3,3-5.9,6.6-8.7,10.1-2.6,3.1-5.2,5.9-8.1,8.6h-2c-.3,1-.7,2-1,3q-1.4,1.7-3,3h-2l-2,4h-2l-2,4h-2v3q-1.4,1.2-3.2,2.4c-3,1.9-5.3,4.1-7.8,6.6-1.7,1.4-3.4,2.9-5.2,4.2-3.6,2.9-7.1,5.9-10.6,9.1-3,2.7-5.8,4.6-9.4,6.5-5,3.2-9.3,7.7-13.5,11.8-4,3.6-8.2,5-13.3,6.4v2q-1.3,1.2-3.2,2.4c-.7.5-1.4.9-2.1,1.4-.7.5-1.5,1-2.2,1.5-.7.5-1.4.9-2.1,1.4-3.6,2.4-7.2,4.8-10.8,7.1-.6.4-1.3.8-1.9,1.3q-1.6.9-3.6.9c.4.9.7,1.9,1.1,2.9,3.3,11.5-2.7,23.8-7.6,33.9-1.7,3.6-3.2,7.3-4.6,11q-.9,2.1-2.6,5.4c-2.6,5.4-2.4,10.8-2.3,16.8,5.5-.3,8.9-3.7,13-7,.9-.7,1.8-1.4,2.7-2.2,4.2-3.4,8.3-6.8,12.3-10.4q2.9-2.4,4.9-2.4c.3-.6.5-1.2.8-1.8,1.3-2.4,2.7-4.2,4.5-6.2.6-.6,1.1-1.3,1.7-2,1.4-1.5,2.9-3,4.3-4.4,2.4-2.4,4.4-4.9,6.5-7.5q8.1-10.1,15.1-12.1c2.5.8,3.8,1.7,5.5,3.7.7,3.3-.7,5-2.4,7.7-.4.6-.9,1.3-1.3,1.9-.4.6-.8,1.3-1.3,2-1.1,1.6-2.3,3.2-3.5,4.8h-2c0,.8-.1,1.6-.2,2.4-1.3,5.7-4.1,10.6-6.9,15.7-2.9,5.4-4.4,11-5.9,17,6.1-1.2,9-3.4,13.2-7.9q6.6-7,9.8-9.1h2c.3-1,.7-2,1-3,1.7-1.4,3.3-2.7,5-4,1.2-1.4,2.4-2.9,3.6-4.4,4.4-5.6,9-11,13.6-16.3,1.7-1.9,3.3-3.8,4.9-5.8,3.5-4.3,7.3-8.3,13-9.5q2.2.7,4,2,1.2,3.1,1,7c-1.4,2.1-3.1,3.8-4.9,5.7-7,7.8-11.1,17.1-14.7,26.8-1.6,4-3.4,7.7-5.4,11.5-1,2-1.5,3.9-2,6.1,3.8-1.9,5.4-3.6,7.6-7.2,4.4-5.7,11.1-9.8,16.9-14.1,3.1-2.3,5.3-4.7,7.6-7.8.5-.5,1-.9,1.5-1.4,1.6-1.7,2.5-3.3,3.5-5.4.3-.7.7-1.5,1-2.2.3-.8.7-1.5,1.1-2.3.4-.8.7-1.5,1.1-2.3,1.7-3.7,3.4-7.5,4.9-11.3h2c.2-.8.5-1.6.7-2.5,1.5-4.2,3.6-7.8,5.9-11.6q.7-1.1,1.3-2.3c3.4-5.6,6.8-11.2,10.2-16.7,1.7-2.8,3.4-5.6,5-8.4,2.2-3.7,4.7-6.5,7.8-9.5,1.5-2.1,2.9-4.3,4.3-6.5q8.4-12.8,12.9-16.4c3.1-2.5,4.6-4.9,6.8-8.2,5.7-7,11.2-12.4,19.4-16.3,1.1-.5,2.2-1.1,3.3-1.6,3.7-1.2,5.6-1.2,9.3,0q2,3,1.9,4.9c-1.2,4.9-2.8,9.4-5,14q-1.1,2.2-1.9,5.2c-1.1,2.9-2.6,4.7-4.7,7.1-1.6,2.1-2.7,4.2-3.8,6.6-2.7,5.7-6.1,10.8-10.7,15.1-1.8,1.9-2.6,3.4-3.8,5.7-3.8,8-8.6,14.1-15.1,20.2-2.1,2.2-3.5,4.5-5.1,7.1-2,2.8-3.9,4.9-6.6,7.1q-2.4,1.7-3.3,3.9c-1.2,2.3-2.4,3.4-4.4,5.1q-13.2,11-20.6,26c-.3.9-.6,1.7-.9,2.6-2.2,6.9-2.5,13.2-2.1,20.4,2.6,1.6,4.1,2.5,7,3,2.8-1,5.1-2.2,7.7-3.7,2.2-1.2,3.9-1.8,6.3-2.3q.1-.9.3-1.9c1.1-6.2,3-11.4,5.7-17.1.5-1.3,1.1-2.6,1.6-3.9q1.4-3.1,3.4-6.1h2c.3-.6.5-1.2.8-1.8,1.2-2.3,2.5-4,4.2-6,.5-.6,1-1.2,1.6-1.9q1.4-1.4,3.4-1.4c.2-.6.5-1.1.7-1.7,3.5-6,10.6-11,17.1-13.4,4.7-1.2,8.9-1.2,13.2,1.2,2.2,4.1,1.4,8.7.2,13-1.3,3.3-2.7,6.6-4.2,9.9h-2c-.7,1.6-1.3,3.3-2,5h-2v2h-2c-.2.6-.5,1.1-.7,1.7-1.7,3-3.8,4.9-6.3,7.3-2,2-4,4.1-6,6.1-1.9,1.8-3.8,3.3-6,4.9.5,3.7.9,5.8,3,9,2.4.9,4.5,1.5,7,2q1.3.3,2.6.6c8.9,1.4,15.5-1.3,23.6-4.8,2.5-1.1,5.1-1.9,7.7-2.8,6.6-2.4,12.8-5.5,18.8-9.2,4-2.1,6.9-2.4,11.4-2.8q.4,2.2,0,5c-3.1,2.5-6.3,4.2-9.9,5.9-2.9,1.4-5.2,2.9-7.7,4.9-4.6,3.5-9.6,5.9-14.9,8.4-.9.4-1.8.8-2.7,1.3-14.4,6.7-30.8,12-46.6,7-5.2-2.1-8.7-5.1-12.2-9.4-.7.3-1.3.7-2,1-1.8.9-3.6,1.8-5.4,2.7-1.9.9-3.7,1.9-5.5,3-5.8,2.5-11.6,3.7-17.8,2.7-1.1-.5-2.1-.9-3.2-1.4-.6-.2-1.2-.5-1.9-.7-3.7-1.7-5.6-3.4-7.1-7.2-1.6-5.9-1.3-12-1.1-18.1-5.9,4.9-11.7,9.9-17.3,15.1-.6.5-1.2,1.1-1.8,1.7-1.2,1.1-2.3,2.2-3.5,3.3q-4.2,3.9-6.4,3.9v2c-.9.5-1.8,1-2.7,1.6-4.3,2.8-6.1,6.7-8.3,11.2-.4.8-.9,1.7-1.3,2.5-3.2,6.3-5.9,12.8-8.3,19.4-1.4,3.4-3.3,6.2-5.4,9.2-.6,1.3-1.2,2.6-1.8,4-2,4.7-4.5,9-7,13.3-2.6,4.5-5,9.1-7.3,13.8-2.9,5.9-6,11.6-9.4,17.3-1.3,2.2-2.4,4.4-3.4,6.7-2.1,4.3-4.9,8-7.8,11.8-3.1,4.2-5.9,8.6-8.7,12.9-1.9,2.9-3.7,5.3-6.2,7.8-2.4,2.5-3.7,4.6-5.3,7.7-4,7.6-9.2,13.6-16.1,18.7h-2c-.3.6-.5,1.2-.8,1.8-3.4,6.3-9.3,10.1-15.2,13.8q-2.2,1.4-4,4c-3.7,4.4-9.5,6.2-15,7.4-4.8.3-8.7.1-13-2-2.3-4.2-2.1-7.6-1.6-12.3.1-1.3.2-2.5.3-3.8,0-1,.2-1.9.3-2.9h4c0-1-.2-2-.2-3.1,0-4.4,1-8.6,2.1-12.9.2-.7.3-1.3.5-2q.5-1.9,1.7-5c1-.3,2-.7,3-1q1.2-2.1,2.2-4.6t1-2.5c.3-.6.5-1.3.8-1.9h2v-2h2c0-.9.1-1.7.2-2.6,1.1-4.4,3.2-6.6,6.2-9.9,3.7-4,6.2-7.6,8.6-12.5,1.6-1.9,3.2-3.7,4.9-5.5,2.6-2.8,5-5.3,7-8.5,2.2-3.2,4.5-5.7,7.3-8.4,5.1-5,9.8-10.1,14.3-15.6,3.9-4.7,8.1-8.3,12.9-12,4.1-3.4,8.1-7.3,10.5-12.2,1.4-2.6,3.4-3.4,6-4.9,1.7-1.6,3.4-3.3,5-5,1.1-1.1,2.2-2.3,3.3-3.4.6-.6,1.2-1.2,1.8-1.8,1.9-1.8,3.9-3.4,6-5.1,7.5-6.5,10.5-15.5,13-24.9,1-2.8,2.2-4.5,4-6.8v-3c-3,1.6-5.6,3.5-8.1,5.8-7.4,6.4-14.7,11.9-24.9,11.2-3.6-.8-5.4-1.4-8-4-1.5-6.7-.5-12.4,1-19q-8.9,6.7-17.4,13.9c-6.6,5.8-13.8,9.5-22.8,8.9q-7.8-2.2-10.2-6c-1.7-8.6,1.7-19.7,4.4-27.8l2-1q.9-1.7,1.6-3.9c.3-.8.6-1.6.9-2.4.3-.8.6-1.7.9-2.5q3.2-8.6,5.2-11.9c1.8-3.1,2.4-6.1,3.1-9.7.3-1.3.5-2.5.8-3.8.2-1,.4-1.9.6-2.9-10.9,3.4-21,9-27,19-1.1,1.8-2.2,3.5-3.3,5.2-.6.9-1.2,1.9-1.8,2.8-4.1,6.3-8.7,12.4-13.6,18.1-3.7,4.5-6.9,9.3-9.8,14.3-3,4.8-6.3,9.8-10.9,13.3-3.5,2.9-6,6.3-8.7,10-.5.7-1,1.4-1.6,2.1-2.4,3.2-4.6,6.4-6.5,10-2.1,3.6-4.2,5.1-7.8,7.1h-2v2q-3.4.1-7,0l-2-2c.3-4.5.7-7.7,4-11h2c.2-.6.5-1.1.8-1.7,1.5-2.7,3.2-4.9,5.2-7.2,2.1-2.6,4-5,5.7-7.9.5-.7.9-1.4,1.4-2.2h2c.3-.7.5-1.5.8-2.2,1.3-2.9,2.8-5.1,4.7-7.6.6-.8,1.2-1.6,1.8-2.4.5-.6,1.1-1.2,1.7-1.8h2c.7-1.3,1.3-2.6,2-4h3c.3-.7.6-1.5.8-2.2,3.3-7.8,8.3-14.6,13.6-21.1,2.7-3.4,4.7-6.7,6.5-10.6l1-1q-4.1.5-7.8,2c-2.8,1.3-5.2,1.5-8.2,1.8-1,0-2.1.2-3.1.3-3,0-4.5-.1-6.9-2-1.1-3.4-1.2-5.3,0-8.7,5.1-8.2,12-14.2,21.4-17,.5,0,1.1-.2,1.6-.3v-2c2.1-1,4.3-1.9,6.4-2.9,1.6-.7,3.2-1.4,4.8-2.2,4-1.8,7.7-3.2,11.9-4.1,5.1-1.5,7-3.9,9.6-8.4.4-.8.8-1.6,1.2-2.4.4-.7.7-1.4,1.1-2.1.7-1.3,1.3-2.6,1.9-3.9,1.4-2.8,3.1-5.5,4.8-8.2.9-1.5,1.8-2.9,2.7-4.4,1.7-2.9,3.6-5.6,5.4-8.4,2.2-3.4,4.4-6.9,6.4-10.4,2.1-3.5,4.5-6.8,6.9-10.1,1.6-2.4,2.6-4.8,3.6-7.5-.8.5-1.5,1.1-2.3,1.6-5.3,3.6-10.3,6.9-16.2,9.3-3.1,1.4-6,3.2-8.9,4.9-5.9,3.5-12,6.2-18.5,8.8-4.2,1.6-8.2,3.5-12.2,5.6-2.7,1.2-5.4,1.7-8.2,2.3-3.3.7-6.4,1.6-9.6,2.6-4.6,1.3-9.1,2.6-13.7,3.5-2,.4-3.9,1-5.8,1.5-5.1,1.3-10.1,1.3-15.4,1.3-.9,0-1.9,0-2.8,0-6.5,0-11.7-1-17.2-4.4-2.4-2.7-3-3.9-2.9-7.5,2-5.2,5.2-7.9,9.9-10.5,2.2-1.5,4.4-3,6.6-4.5,5.4-3.4,9.2-4.9,15.7-4.8,1.2,0,2.5,0,3.7,0q2.9.2,3.9,1.2.4,2.8,0,6-2.2,2.4-5,4-2.6-.2-5-1-1.5-.5-3-1v2c-.9.2-1.8.5-2.8.8-3.4,1.3-5,2.5-7.2,5.2v2c8.7,2,15.4,1.8,24,0,1.7-.3,3.4-.6,5.1-.9,1.9-.3,3.7-.7,5.6-1q1.3-.2,2.7-.5c5.5-1,10.4-2.5,15.6-4.6q1.5-.2,2.9-.4c7.5-1.4,14.4-5.7,21.1-9.1,1.8-.9,3.6-1.8,5.4-2.7,11.4-5.6,22.4-11.8,32.8-19,2.7-1.8,5.4-3.4,8.1-5,2.9-1.7,5.6-3.5,8.1-5.7q2.5-2.1,4.5-2.1c.7-1.7,1.3-3.3,2-5h2q.4-.9.8-1.9,1.2-2.1,4.2-4.1,3.6-.2,7,0,1,1,1.4,3.7c-.5,4.6-2.1,6.1-5.4,9.3h-2v2c-.7.7-1.5,1.4-2.2,2.2-3.1,3.2-5.1,6.3-7.2,10.1-2.9,4.9-5.8,9.6-9.4,14.1-1.6,2.1-2.9,4.3-4.2,6.6-.7,1-1.4,2-2.1,3.1q-1.9,2.7-2.3,5-.6,1.9-2.9,4.1c-3.1,3.3-4.8,6.5-6.6,10.6-2.6,5.4-5.3,10.4-8.7,15.3-2.1,3.2-3.7,6.5-5.3,10,.6-.2,1.2-.4,1.9-.6q2.1-.4,4.1.6c2.8,1.4,4.1,1,7.1,0,2-1.3,4-2.6,6-4h2c.3-1,.7-2,1-3,1.6-1,3.3-2,5-2.9,3.3-1.8,6.5-3.9,9.7-6,.7-.4,1.3-.8,2-1.3,3.9-2.6,6.5-5.1,9.3-8.8,2-.7,4-1.3,6-2,3.8-2.4,7.2-5.2,10.4-8.4s8.1-7.4,12.6-10.6h2v-2q1.6-1.3,3.7-2.8c3.5-2.4,6.3-5.2,9.3-8.2,2.7-2.3,5.5-4.5,8.3-6.7,2.7-2.3,5.2-4.7,7.7-7.3.9-.8,1.7-1.6,2.6-2.4,2.5-2.7,4-5.1,5.4-8.6q-.4-2.1-1-4c.6-.4,1.3-.7,1.9-1.1q10.2-5.8,17.1-14.9c1.6-1.7,3.3-3.4,5-5q1.1-1.1,2.2-2.3c.9-.9,1.8-1.8,2.8-2.7.7-.7,1.4-1.4,2.1-2.1,4.7-4.5,7.3-7,13.9-5.9ZM487,76c-.3.7-.7,1.3-1,2h2c-.3-.7-.7-1.3-1-2ZM480,82c-.7,1.7-1.3,3.3-2,5q-1.9,1.1-4,2c-6.4,5.7-11,13.9-15.6,21q-1.4,2-3.3,3.7c-3.1,3.3-5,7.1-7.1,11.1-.9,1.6-1.7,3.1-2.6,4.7-.4.8-.8,1.5-1.2,2.3-1.1,2-2.2,4-3.4,6-1.4,2.4-2.7,4.8-3.9,7.4-1.1,2.3-2.1,4.1-3.7,6.1q-1.5,1.7-1.2,4.7c4.4-1.6,6.9-5,9.8-8.5.5-.6,1-1.2,1.6-1.9,1.1-1.3,2.1-2.5,3.2-3.8,1.3-1.6,2.7-3.2,4.1-4.8q4.1-4.4,5.4-10c.6-.2,1.2-.4,1.8-.6,3.4-2.2,4.5-4.8,6.2-8.4v-2c.6-.2,1.2-.5,1.8-.7,2.8-1.6,3.7-3.3,5.3-6.1.5-.9,1-1.7,1.5-2.6.5-.9,1-1.7,1.5-2.6,2.3-3.9,4.7-7.8,7.1-11.6.4-.6.7-1.1,1.1-1.7,1.6-2.6,3.2-5.1,4.9-7.6q-.3-2.6-1-5c-2.4,0-4.4,2.5-6,4ZM238.3,159.8c-3,1.8-5.9,3.5-9.1,4.8-3.3,1.4-5.6,2.9-8.2,5.4v2q-1,.5-2,1,11.8-.7,22-5.8c2.9-3.7,4-5.3,4-10.2-2.8,0-4.3,1.3-6.7,2.8ZM468,173q-1.2,2.1-2,4c-1,.3-2,.7-3,1-3.2,4.2-5.8,8.3-6.4,13.6.1.8.2,1.6.4,2.4,8-5,15.1-12.3,17.5-21.7.2-1.1.3-2.2.5-3.3-2.5,0-5.1,2.6-7,4ZM311,277c-4.1,4.3-8,8.7-11.7,13.4q-2.3,2.6-5.4,4.7c-3.1,2.1-4,3.7-5.9,6.9-1.7,1.6-3.5,3-5.3,4.5-2.2,1.9-4,4-5.7,6.5v2q-.9.3-1.8.7c-2.9,1.7-4.2,3.7-6.2,6.3-4.6,5.9-9.1,11.4-14.6,16.5q-1.5,1.5-2.7,3.8c-1.7,2.8-3.6,5.2-5.7,7.7-2.9,3.6-5,6.9-7,11.1-1.2,1.8-2.3,3.5-3.5,5.3-2.7,4.1-4.5,7.9-5.8,12.6-.7,2.2-1.7,4-2.8,6-2.4,4.7-3.3,9.9-2.9,15.1q1.4,2.3,3,4c7.9-.9,12.9-6.6,18.5-11.7,2.1-2,4.3-3.8,6.5-5.7q10.1-8.8,17.9-19.7,1.1-1.9,3-4.2c2.3-2.9,4.4-6,6.4-9.1.4-.6.8-1.2,1.2-1.8,5.7-9,11-18.2,15.6-27.7,3-6.2,6.2-12.1,9.6-18.1,2.7-4.8,5.3-9.5,7.4-14.6,1.9-4.4,4.3-8.7,6.5-12.9,1.5-3.5,2.1-6.6,2.5-10.4-3.5,0-8.6,6.7-11,9Z"/>
  <path class="st0" d="M987,115q2.9,2.4,5,5l2,2c0,3.3-.6,4.6-2.9,7-4.8,1.6-8.6.1-13.1-2q-2.2-2.4-3-5t1-5c3.7-2.4,6.7-2.8,11-2Z"/>
  <path d="M0,0"/>
  <path d="M0,0"/>
  <path d="M0,0"/>
</svg>